<?xml version="1.0" encoding="UTF-8" standalone="no"?>
<svg
   id="Layer_1"
   viewBox="0 0 3000 850"
   version="1.1"
   xmlns="http://www.w3.org/2000/svg"
   xmlns:svg="http://www.w3.org/2000/svg">
  <defs
     id="defs1">
    <style
       id="style1">
      :root {
        --color-primary: #fe5757;
        --color-secondary: #5a5a5a;
        --color-background: #ffffff;
      }

      .rectangle {
        fill: var(--color-background);
      }

      .icon {
        fill: var(--color-primary);
      }

      .label1 {
        fill: var(--color-secondary);
      }
      
      .label2 {
          fill: var(--color-primary); 
      }
      
    </style>
  </defs>
  <!-- <rect class="rectangle" width="350" height="350" x="250" y="250"/> -->
  <path
     class="icon"
     d="M128.51,425.33c0-44.96-.37-89.92.21-134.86.2-15.46,7.06-29.17,16.52-41.4,6.35-8.22,14.22-14.65,23.16-19.85,72.1-42.01,144.22-84,216.29-126.06,15.03-8.77,31.23-12.48,48.4-10.71,11.48,1.18,22.43,4.76,32.55,10.66,72.19,42.12,144.41,84.18,216.63,126.23,15.29,8.91,26.58,21.4,33.37,37.72,3.27,7.86,5.51,16.08,5.54,24.75.23,67.77.5,135.54.73,203.3.06,18.48.19,36.97-.03,55.45-.38,30.93-13.36,54.77-40.38,70.51-71.89,41.87-143.8,83.74-215.68,125.64-13.38,7.8-27.73,12.06-43.23,11.63-12.19-.34-23.78-3.55-34.36-9.66-35.1-20.28-70.12-40.71-105.15-61.1-38.92-22.65-77.85-45.28-116.73-67.99-14.96-8.74-25.39-21.45-32.1-37.37-4.14-9.83-5.86-19.98-5.82-30.64.16-42.08.07-84.17.07-126.25h.02,0ZM543.7,310.08c5.29-5.21,10.51-8.39,17.25-8.84,1.01-.07,2.7-1.5,2.74-2.36.26-5.33.13-10.69.13-16.19-7.53-.45-13.81-3.19-18.86-8.32-5.03-5.11-7.53-11.51-8.36-18.56h-223.7c.03,7.6-2.72,13.71-7.91,18.9-5.27,5.26-11.83,7.32-19.15,8.1,0,4.99.13,9.72-.05,14.45-.11,2.94.59,4.04,3.9,4.19,6.53.29,12,3.28,16.57,8.52-.76.27-1.18.45-1.61.57-29.08,7.47-55.22,37.3-54.51,73.92.86,44.43.19,88.9.22,133.35,0,4.61-.32,9.33.48,13.82,3.19,17.85,11.48,33.04,25.31,44.87,13.1,11.21,28.15,17.88,45.71,17.88,68.92,0,137.85-.01,206.77.02,9.32,0,18.27-1.98,26.58-5.93,29.03-13.79,44.5-36.81,44.76-69.09.35-45.2.11-90.4.05-135.6,0-4.08-.51-8.16-.95-12.22-1.9-17.21-9.95-31.31-22.14-43.23-9.17-8.98-20.15-14.84-33.23-18.23v-.02Z"
     id="path1" />
  <g
     id="text"
     aria-label="ServerJars">
    <path
      class="label1"
      style="font-weight:700;font-size:400px;font-family:Roboto, sans-serif"
      d="m 973.4375,495.58594 q 0,-7.61719 -2.34375,-13.67188 -2.14844,-6.25 -8.20313,-11.32812 -6.05468,-5.27344 -16.99218,-10.35157 -10.9375,-5.07812 -28.32032,-10.54687 -19.33593,-6.25 -36.71875,-14.0625 -17.1875,-7.8125 -30.46875,-18.16406 -13.08593,-10.54688 -20.70312,-24.41407 -7.42188,-13.86718 -7.42188,-32.22656 0,-17.77344 7.8125,-32.22656 7.8125,-14.64844 21.875,-25 14.0625,-10.54688 33.20313,-16.21094 19.33594,-5.66406 42.38281,-5.66406 31.44531,0 54.88281,11.32812 23.43753,11.32813 36.32813,31.05469 13.0859,19.72656 13.0859,45.11719 h -58.20309 q 0,-12.5 -5.27344,-21.875 -5.07812,-9.57031 -15.625,-15.03906 -10.35156,-5.46875 -26.17187,-5.46875 -15.23438,0 -25.39063,4.6875 -10.15625,4.49218 -15.23437,12.30468 -5.07813,7.61719 -5.07813,17.1875 0,7.22657 3.51563,13.08594 3.71094,5.85938 10.9375,10.9375 7.22656,5.07813 17.77344,9.57031 10.54687,4.49219 24.41406,8.78907 23.24219,7.03125 40.82031,15.82031 17.77344,8.78906 29.68749,19.72656 11.9141,10.9375 17.9688,24.80469 6.0547,13.86719 6.0547,31.44531 0,18.55469 -7.2266,33.20313 -7.2266,14.64843 -20.8985,24.80468 -13.67183,10.15625 -32.61714,15.42969 -18.94531,5.27344 -42.38281,5.27344 -21.09375,0 -41.60156,-5.46875 Q 866.79687,562.77344 850,551.44531 833.39844,540.11719 823.4375,522.53906 813.47656,504.96094 813.47656,480.9375 h 58.78906 q 0,13.28125 4.10157,22.46094 4.10156,9.17968 11.52343,14.84375 7.61719,5.66406 17.96875,8.20312 10.54688,2.53906 23.04688,2.53906 15.23437,0 25,-4.29687 9.96094,-4.29688 14.64844,-11.91406 4.88281,-7.61719 4.88281,-17.1875 z m 191.9922,78.32031 q -24.6094,0 -44.1406,-7.8125 -19.5313,-8.00781 -33.2032,-22.07031 -13.4765,-14.0625 -20.7031,-32.61719 -7.2265,-18.75 -7.2265,-39.84375 V 463.75 q 0,-24.02344 6.8359,-43.94531 6.8359,-19.92188 19.5312,-34.57032 12.8907,-14.64843 31.25,-22.46093 18.3594,-8.00782 41.4063,-8.00782 22.4609,0 39.8437,7.42188 17.3829,7.42187 29.1016,21.09375 11.9141,13.67187 17.9688,32.8125 6.0546,18.94531 6.0546,42.1875 v 23.4375 h -167.9687 v -37.5 h 112.6953 v -4.29688 q 0,-11.71875 -4.2969,-20.89843 -4.1015,-9.375 -12.5,-14.84375 -8.3984,-5.46875 -21.4843,-5.46875 -11.1329,0 -19.1407,4.88281 -8.0078,4.88281 -13.0859,13.67187 -4.8828,8.78907 -7.4219,20.70313 -2.3437,11.71875 -2.3437,25.78125 v 7.8125 q 0,12.69531 3.5156,23.4375 3.7109,10.74219 10.3516,18.55469 6.8359,7.8125 16.4062,12.10937 9.7656,4.29688 22.0703,4.29688 15.2344,0 28.3203,-5.85938 13.2813,-6.05469 22.8516,-18.16406 l 27.3437,29.6875 q -6.6406,9.57031 -18.164,18.35937 -11.3281,8.78907 -27.3438,14.45313 -16.0156,5.46875 -36.5234,5.46875 z m 175,-169.14063 V 570 h -56.25 V 358.67187 h 52.9297 z m 63.6719,-47.46093 -0.9766,52.14843 q -4.1016,-0.58593 -9.9609,-0.97656 -5.6641,-0.58594 -10.3516,-0.58594 -11.9141,0 -20.7031,3.125 -8.5938,2.92969 -14.4531,8.78907 -5.6641,5.85937 -8.5938,14.25781 -2.7344,8.39844 -3.125,19.14062 l -11.3281,-3.51562 q 0,-20.50781 4.1015,-37.69531 4.1016,-17.38282 11.9141,-30.27344 8.0078,-12.89063 19.5313,-19.92188 11.5234,-7.03125 26.3671,-7.03125 4.6875,0 9.5704,0.78125 4.8828,0.58594 8.0078,1.75782 z m 101.9531,171.67968 46.875,-170.3125 h 58.7891 L 1540.4297,570 h -35.5469 z m -32.2266,-170.3125 47.0703,170.50782 L 1521.875,570 h -35.7422 l -71.289,-211.32813 z m 257.6172,215.23438 q -24.6094,0 -44.1406,-7.8125 -19.5313,-8.00781 -33.2031,-22.07031 -13.4766,-14.0625 -20.7032,-32.61719 -7.2265,-18.75 -7.2265,-39.84375 V 463.75 q 0,-24.02344 6.8359,-43.94531 6.836,-19.92188 19.5313,-34.57032 12.8906,-14.64843 31.25,-22.46093 18.3593,-8.00782 41.4062,-8.00782 22.461,0 39.8438,7.42188 17.3828,7.42187 29.1015,21.09375 11.9141,13.67187 17.9688,32.8125 6.0547,18.94531 6.0547,42.1875 v 23.4375 h -167.9688 v -37.5 h 112.6953 v -4.29688 q 0,-11.71875 -4.2968,-20.89843 -4.1016,-9.375 -12.5,-14.84375 -8.3985,-5.46875 -21.4844,-5.46875 -11.1328,0 -19.1406,4.88281 -8.0079,4.88281 -13.086,13.67187 -4.8828,8.78907 -7.4219,20.70313 -2.3437,11.71875 -2.3437,25.78125 v 7.8125 q 0,12.69531 3.5156,23.4375 3.711,10.74219 10.3516,18.55469 6.8359,7.8125 16.4062,12.10937 9.7657,4.29688 22.0703,4.29688 15.2344,0 28.3204,-5.85938 13.2812,-6.05469 22.8515,-18.16406 l 27.3438,29.6875 q -6.6407,9.57031 -18.1641,18.35937 -11.3281,8.78907 -27.3437,14.45313 -16.0157,5.46875 -36.5235,5.46875 z m 175,-169.14063 V 570 h -56.25 V 358.67187 h 52.9297 z m 63.6719,-47.46093 -0.9766,52.14843 q -4.1015,-0.58593 -9.9609,-0.97656 -5.6641,-0.58594 -10.3516,-0.58594 -11.914,0 -20.7031,3.125 -8.5937,2.92969 -14.4531,8.78907 -5.6641,5.85937 -8.5938,14.25781 -2.7343,8.39844 -3.125,19.14062 l -11.3281,-3.51562 q 0,-20.50781 4.1016,-37.69531 4.1015,-17.38282 11.914,-30.27344 8.0078,-12.89063 19.5313,-19.92188 11.5234,-7.03125 26.3672,-7.03125 4.6875,0 9.5703,0.78125 4.8828,0.58594 8.0078,1.75782 z"
      id="path2" />
    <path
      class="label2"
      style="font-weight:700;font-size:400px;font-family:Roboto, sans-serif"
      d="M 2115.2344,482.69531 V 285.625 h 58.3984 v 197.07031 q 0,28.51563 -12.5,49.02344 -12.5,20.3125 -34.1797,31.25 -21.4843,10.9375 -48.4375,10.9375 -27.9297,0 -49.414,-9.375 -21.4844,-9.375 -33.7891,-28.71094 -12.3047,-19.53125 -12.3047,-49.41406 h 58.7891 q 0,15.625 4.2969,24.80469 4.4921,9.17968 12.6953,13.08593 8.2031,3.90625 19.7265,3.90625 11.1328,0 19.336,-5.27343 8.2031,-5.27344 12.6953,-15.42969 4.6875,-10.15625 4.6875,-24.80469 z m 218.9453,39.64844 v -94.14063 q 0,-10.15625 -3.3203,-17.38281 -3.3203,-7.42187 -10.3516,-11.52344 -6.8359,-4.10156 -17.7734,-4.10156 -9.375,0 -16.211,3.32031 -6.8359,3.125 -10.5468,9.17969 -3.711,5.85938 -3.711,13.86719 h -56.25 q 0,-13.47656 6.25,-25.58594 6.25,-12.10937 18.1641,-21.28906 11.9141,-9.375 28.3203,-14.64844 16.6016,-5.27344 37.1094,-5.27344 24.6094,0 43.75,8.20313 19.1406,8.20312 30.0781,24.60937 11.1328,16.40625 11.1328,41.01563 v 90.42969 q 0,17.38281 2.1485,28.51562 2.1484,10.9375 6.25,19.14063 V 570 h -56.836 q -4.1015,-8.59375 -6.25,-21.48438 -1.9531,-13.08593 -1.9531,-26.17187 z m 7.4219,-81.05469 0.3906,31.83594 h -31.4453 q -11.1328,0 -19.336,2.53906 -8.2031,2.53906 -13.4765,7.22656 -5.2735,4.49219 -7.8125,10.54688 -2.3438,6.05469 -2.3438,13.28125 0,7.22656 3.3203,13.08594 3.3204,5.66406 9.5704,8.98437 6.25,3.125 14.6484,3.125 12.6953,0 22.0703,-5.07812 9.375,-5.07813 14.4531,-12.5 5.2735,-7.42188 5.4688,-14.0625 l 14.8437,23.82812 q -3.125,8.00781 -8.5937,16.60156 -5.2735,8.59375 -13.4766,16.21094 -8.2031,7.42188 -19.7265,12.30469 -11.5235,4.6875 -27.3438,4.6875 -20.1172,0 -36.5234,-8.00781 -16.211,-8.20313 -25.7813,-22.46094 -9.375,-14.45313 -9.375,-32.8125 0,-16.60156 6.25,-29.49219 6.25,-12.89062 18.3594,-21.67969 12.3047,-8.98437 30.6641,-13.47656 18.3593,-4.6875 42.5781,-4.6875 z m 148.8281,-36.52344 V 570 h -56.25 V 358.67187 h 52.9297 z m 63.6719,-47.46093 -0.9766,52.14843 q -4.1016,-0.58593 -9.9609,-0.97656 -5.6641,-0.58594 -10.3516,-0.58594 -11.9141,0 -20.7031,3.125 -8.5938,2.92969 -14.4531,8.78907 -5.6641,5.85937 -8.5938,14.25781 -2.7344,8.39844 -3.125,19.14062 l -11.3281,-3.51562 q 0,-20.50781 4.1015,-37.69531 4.1016,-17.38282 11.9141,-30.27344 8.0078,-12.89063 19.5313,-19.92188 11.5234,-7.03125 26.3671,-7.03125 4.6875,0 9.5704,0.78125 4.8828,0.58594 8.0078,1.75782 z m 140.8203,154.29687 q 0,-6.05469 -3.5156,-10.9375 -3.5157,-4.88281 -13.086,-8.98437 -9.375,-4.29688 -27.1484,-7.8125 -16.0156,-3.51563 -29.8828,-8.78907 -13.6719,-5.46875 -23.8282,-13.08593 -9.9609,-7.61719 -15.625,-17.96875 -5.664,-10.54688 -5.664,-24.02344 0,-13.28125 5.664,-25 5.8594,-11.71875 16.6016,-20.70313 10.9375,-9.17968 26.5625,-14.25781 15.8203,-5.27344 35.5469,-5.27344 27.539,0 47.2656,8.78907 19.9219,8.78906 30.4688,24.21875 10.7421,15.23437 10.7421,34.76562 h -56.25 q 0,-8.20312 -3.5156,-14.64844 -3.3203,-6.64062 -10.5469,-10.35156 -7.0312,-3.90625 -18.3593,-3.90625 -9.375,0 -16.211,3.32031 -6.8359,3.125 -10.5468,8.59375 -3.5157,5.27344 -3.5157,11.71875 0,4.88282 1.9532,8.78907 2.1484,3.71093 6.8359,6.83593 4.6875,3.125 12.1094,5.85938 7.6172,2.53906 18.75,4.6875 22.8515,4.6875 40.8203,12.30469 17.9687,7.42187 28.5156,20.3125 10.5469,12.69531 10.5469,33.39843 0,14.0625 -6.25,25.78125 -6.25,11.71875 -17.9688,20.50782 -11.7187,8.59375 -28.125,13.47656 -16.2109,4.6875 -36.5234,4.6875 -29.4922,0 -50,-10.54688 -20.3125,-10.54687 -30.8594,-26.75781 -10.3515,-16.40625 -10.3515,-33.59375 h 53.3203 q 0.3906,11.52344 5.8593,18.55469 5.6641,7.03125 14.2579,10.15625 8.789,3.125 18.9453,3.125 10.9375,0 18.164,-2.92969 7.2266,-3.125 10.9375,-8.20312 3.9063,-5.27344 3.9063,-12.10938 z"
      id="path3" />
  </g>
</svg>
